<?xml version="1.0" standalone="no"?>
<!DOCTYPE svg PUBLIC "-//W3C//DTD SVG 20010904//EN"
 "http://www.w3.org/TR/2001/REC-SVG-20010904/DTD/svg10.dtd">
<svg version="1.0" xmlns="http://www.w3.org/2000/svg"
 width="512.000000pt" height="512.000000pt" viewBox="0 0 512.000000 512.000000"
 preserveAspectRatio="xMidYMid meet">

<g transform="translate(0.000000,512.000000) scale(0.100000,-0.100000)"
fill="#000000" stroke="none">
<path d="M1283 4526 c-26 -23 -28 -31 -33 -118 l-5 -93 -120 -5 c-101 -4 -128
-9 -170 -30 -110 -54 -109 -52 -512 -850 -205 -404 -387 -766 -405 -805 l-33
-70 0 -860 0 -860 28 -61 c34 -73 92 -132 167 -171 l55 -28 2305 0 2305 0 58
29 c70 36 130 99 165 174 l27 57 0 860 0 860 -33 70 c-18 39 -199 399 -403
801 -251 498 -382 746 -408 776 -21 24 -65 57 -97 73 -53 27 -71 31 -179 35
l-120 5 -5 93 c-5 87 -7 95 -33 118 l-28 24 -1249 0 -1249 0 -28 -24z m2387
-391 l0 -215 -1110 0 -1110 0 0 215 0 215 1110 0 1110 0 0 -215z m-2420 -129
l0 -84 -91 -4 c-85 -3 -92 -5 -115 -31 l-24 -28 0 -285 0 -284 -72 0 c-92 0
-132 -21 -147 -77 -6 -21 -11 -118 -11 -215 l0 -178 -206 0 -206 0 105 203
c57 111 198 388 313 616 171 340 213 417 238 432 24 15 51 19 124 19 l92 0 0
-84z m2836 65 c25 -15 67 -92 238 -432 115 -228 256 -505 313 -616 l105 -203
-206 0 -206 0 0 178 c0 97 -5 194 -11 215 -15 56 -55 77 -146 77 l-73 0 0 284
0 285 -24 28 c-23 26 -30 28 -115 31 l-91 4 0 84 0 84 93 0 c72 0 99 -4 123
-19z m-176 -566 l0 -215 -1350 0 -1350 0 0 215 0 215 1350 0 1350 0 0 -215z
m220 -550 l0 -135 -271 0 c-168 0 -287 -4 -315 -11 -84 -22 -124 -72 -214
-269 l-79 -175 -691 0 -691 0 -79 175 c-90 197 -130 247 -214 269 -28 7 -147
11 -315 11 l-271 0 0 135 0 135 1570 0 1570 0 0 -135z m-2528 -535 c85 -192
125 -244 205 -268 57 -17 1449 -17 1506 0 80 24 120 76 205 268 l79 175 599 3
c565 2 601 1 633 -16 19 -10 43 -34 53 -53 17 -32 18 -78 18 -832 0 -879 2
-848 -62 -887 -33 -20 -44 -20 -2276 -20 -2478 0 -2281 -5 -2322 63 -19 31
-20 56 -20 837 0 761 1 807 18 839 10 19 34 43 53 53 32 17 68 18 633 16 l599
-3 79 -175z"/>
<path d="M1917 1768 c-68 -40 -77 -74 -77 -303 0 -230 9 -264 79 -303 39 -22
40 -22 641 -22 601 0 602 0 641 22 70 39 79 73 79 305 0 189 -1 202 -23 243
-44 84 -11 80 -697 80 -603 0 -605 -1 -643 -22z m1163 -303 l0 -125 -520 0
-520 0 0 125 0 125 520 0 520 0 0 -125z"/>
</g>
</svg>
